<svg version="1.0" xmlns="http://www.w3.org/2000/svg"
 width="206.000000pt" height="75.000000pt" viewBox="0 0 206.000000 75.000000"
 preserveAspectRatio="xMidYMid meet">

<g transform="translate(0.000000,75.000000) scale(0.100000,-0.100000)"
fill="#000000" stroke="none">
<path d="M246 644 c-68 -22 -147 -102 -171 -173 -44 -134 18 -287 141 -346 49
-24 159 -31 211 -15 49 16 125 68 120 83 -2 6 -15 19 -29 30 -25 18 -25 18
-62 -7 -153 -104 -354 36 -307 212 37 136 197 191 311 107 l34 -25 30 29 30
30 -25 20 c-73 61 -192 84 -283 55z"/>
<path d="M650 378 l0 -283 150 0 150 0 0 43 0 42 -110 0 -110 0 0 75 0 75 110
0 110 0 0 45 0 45 -110 0 -110 0 0 80 0 80 110 0 110 0 0 40 0 40 -150 0 -150
0 0 -282z"/>
<path d="M1161 639 l-55 -22 65 -22 c85 -29 214 -95 272 -139 l47 -36 11 24
c17 37 2 92 -35 129 -78 78 -205 105 -305 66z"/>
<path d="M1750 637 c-55 -29 -83 -77 -76 -131 7 -60 34 -87 129 -134 74 -36
90 -48 103 -77 12 -30 12 -39 0 -69 -17 -40 -42 -56 -86 -56 -37 0 -90 47 -90
80 0 19 -4 21 -32 15 -18 -4 -37 -11 -42 -15 -14 -14 13 -75 49 -110 31 -30
43 -35 99 -38 102 -7 167 37 187 126 20 89 -33 166 -141 207 -57 22 -100 56
-100 79 0 8 11 27 24 42 29 35 86 37 120 5 27 -25 35 -26 64 -6 21 15 21 17 5
41 -22 34 -84 64 -131 64 -21 0 -58 -10 -82 -23z"/>
<path d="M1069 548 c-19 -45 -17 -258 2 -313 14 -40 15 -40 66 -40 29 1 55 4
58 7 4 3 0 19 -8 35 -35 66 -41 231 -12 305 5 13 -2 19 -32 27 -55 16 -59 14
-74 -21z"/>
<path d="M1541 455 c-2 -37 -49 -99 -112 -147 -69 -53 -249 -148 -279 -148
-38 0 -28 -18 19 -39 93 -40 158 -24 289 73 82 61 126 127 117 179 -7 49 -33
111 -34 82z"/>
</g>
</svg>
